<svg width="20" height="21" viewBox="0 0 20 21" fill="none" xmlns="http://www.w3.org/2000/svg">
<path d="M18.4444 20.5L11.4444 13.5C10.8889 13.9444 10.25 14.2963 9.52778 14.5556C8.80556 14.8148 8.03704 14.9444 7.22222 14.9444C5.2037 14.9444 3.49556 14.2452 2.09778 12.8467C0.700001 11.4481 0.000741329 9.74 5.8789e-07 7.72222C-0.000740153 5.70444 0.698519 3.9963 2.09778 2.59778C3.49704 1.19926 5.20519 0.5 7.22222 0.5C9.23926 0.5 10.9478 1.19926 12.3478 2.59778C13.7478 3.9963 14.4467 5.70444 14.4444 7.72222C14.4444 8.53704 14.3148 9.30556 14.0556 10.0278C13.7963 10.75 13.4444 11.3889 13 11.9444L20 18.9444L18.4444 20.5ZM7.22222 12.7222C8.61111 12.7222 9.79185 12.2363 10.7644 11.2644C11.737 10.2926 12.223 9.11185 12.2222 7.72222C12.2215 6.33259 11.7356 5.15222 10.7644 4.18111C9.79333 3.21 8.61259 2.7237 7.22222 2.72222C5.83185 2.72074 4.65148 3.20704 3.68111 4.18111C2.71074 5.15519 2.22445 6.33556 2.22222 7.72222C2.22 9.10889 2.7063 10.2896 3.68111 11.2644C4.65593 12.2393 5.8363 12.7252 7.22222 12.7222Z" fill="#1D252E"/>
</svg>
